<mxfile host="app.diagrams.net" modified="2023-12-21T20:20:22.405Z" agent="Mozilla/5.0 (X11; Linux x86_64) AppleWebKit/537.36 (KHTML, like Gecko) Chrome/118.0.0.0 Safari/537.36" etag="ObAdaCTcuSatW83wBPW9" version="22.1.11" type="device">
  <diagram name="Страница — 1" id="yc9SNAwSphA0kbzE8xkv">
    <mxGraphModel dx="2607" dy="1371" grid="1" gridSize="10" guides="1" tooltips="1" connect="1" arrows="1" fold="1" page="1" pageScale="1" pageWidth="827" pageHeight="1169" math="0" shadow="0">
      <root>
        <mxCell id="0" />
        <mxCell id="1" parent="0" />
        <mxCell id="0AXAFl7KqnnSG4MbgNgy-5" style="edgeStyle=orthogonalEdgeStyle;rounded=0;orthogonalLoop=1;jettySize=auto;html=1;exitX=0.5;exitY=1;exitDx=0;exitDy=0;entryX=0.5;entryY=0;entryDx=0;entryDy=0;" parent="1" source="0AXAFl7KqnnSG4MbgNgy-1" target="0AXAFl7KqnnSG4MbgNgy-4" edge="1">
          <mxGeometry relative="1" as="geometry" />
        </mxCell>
        <mxCell id="0AXAFl7KqnnSG4MbgNgy-1" value="начало" style="rounded=1;whiteSpace=wrap;html=1;" parent="1" vertex="1">
          <mxGeometry x="384" y="20" width="60" height="30" as="geometry" />
        </mxCell>
        <mxCell id="0AXAFl7KqnnSG4MbgNgy-7" style="edgeStyle=orthogonalEdgeStyle;rounded=0;orthogonalLoop=1;jettySize=auto;html=1;exitX=0.5;exitY=1;exitDx=0;exitDy=0;entryX=0.5;entryY=0;entryDx=0;entryDy=0;" parent="1" source="0AXAFl7KqnnSG4MbgNgy-2" target="0AXAFl7KqnnSG4MbgNgy-3" edge="1">
          <mxGeometry relative="1" as="geometry" />
        </mxCell>
        <mxCell id="0AXAFl7KqnnSG4MbgNgy-2" value="vector&amp;lt;double&amp;gt; out(F.size(), 0);&lt;br&gt;vector&amp;lt;double&amp;gt; TempX(F.size());&lt;br&gt;double norm = 1;" style="rounded=0;whiteSpace=wrap;html=1;" parent="1" vertex="1">
          <mxGeometry x="321" y="160" width="186" height="60" as="geometry" />
        </mxCell>
        <mxCell id="0AXAFl7KqnnSG4MbgNgy-10" style="edgeStyle=orthogonalEdgeStyle;rounded=0;orthogonalLoop=1;jettySize=auto;html=1;exitX=0.5;exitY=1;exitDx=0;exitDy=0;entryX=0.5;entryY=0;entryDx=0;entryDy=0;strokeWidth=3;" parent="1" source="0AXAFl7KqnnSG4MbgNgy-3" target="0AXAFl7KqnnSG4MbgNgy-9" edge="1">
          <mxGeometry relative="1" as="geometry" />
        </mxCell>
        <mxCell id="XiqsD5tJ2LkIdNnXsAsQ-12" value="&lt;font style=&quot;font-size: 15px;&quot;&gt;Да&lt;/font&gt;" style="edgeLabel;html=1;align=center;verticalAlign=middle;resizable=0;points=[];" vertex="1" connectable="0" parent="0AXAFl7KqnnSG4MbgNgy-10">
          <mxGeometry x="-0.2138" relative="1" as="geometry">
            <mxPoint as="offset" />
          </mxGeometry>
        </mxCell>
        <mxCell id="XiqsD5tJ2LkIdNnXsAsQ-13" style="edgeStyle=orthogonalEdgeStyle;rounded=0;orthogonalLoop=1;jettySize=auto;html=1;exitX=0;exitY=0.5;exitDx=0;exitDy=0;entryX=0.5;entryY=0;entryDx=0;entryDy=0;strokeWidth=3;" edge="1" parent="1" source="0AXAFl7KqnnSG4MbgNgy-3" target="XiqsD5tJ2LkIdNnXsAsQ-7">
          <mxGeometry relative="1" as="geometry">
            <Array as="points">
              <mxPoint x="140" y="280" />
              <mxPoint x="140" y="1150" />
              <mxPoint x="424" y="1150" />
            </Array>
          </mxGeometry>
        </mxCell>
        <mxCell id="XiqsD5tJ2LkIdNnXsAsQ-14" value="&lt;font style=&quot;font-size: 15px;&quot;&gt;Нет&lt;/font&gt;" style="edgeLabel;html=1;align=center;verticalAlign=middle;resizable=0;points=[];" vertex="1" connectable="0" parent="XiqsD5tJ2LkIdNnXsAsQ-13">
          <mxGeometry x="-0.9504" y="-2" relative="1" as="geometry">
            <mxPoint as="offset" />
          </mxGeometry>
        </mxCell>
        <mxCell id="0AXAFl7KqnnSG4MbgNgy-3" value="norm &amp;gt; eps" style="rhombus;whiteSpace=wrap;html=1;" parent="1" vertex="1">
          <mxGeometry x="346" y="250" width="136" height="60" as="geometry" />
        </mxCell>
        <mxCell id="0AXAFl7KqnnSG4MbgNgy-6" style="edgeStyle=orthogonalEdgeStyle;rounded=0;orthogonalLoop=1;jettySize=auto;html=1;exitX=0.5;exitY=1;exitDx=0;exitDy=0;entryX=0.5;entryY=0;entryDx=0;entryDy=0;" parent="1" source="0AXAFl7KqnnSG4MbgNgy-4" target="0AXAFl7KqnnSG4MbgNgy-2" edge="1">
          <mxGeometry relative="1" as="geometry" />
        </mxCell>
        <mxCell id="0AXAFl7KqnnSG4MbgNgy-4" value="Ввод&lt;br&gt;vector&amp;lt;vector&amp;lt;double&amp;gt;&amp;gt; A&lt;br&gt;vector&amp;lt;double&amp;gt; F&lt;br&gt;&amp;nbsp;double eps" style="rounded=0;whiteSpace=wrap;html=1;" parent="1" vertex="1">
          <mxGeometry x="338" y="80" width="152" height="60" as="geometry" />
        </mxCell>
        <mxCell id="0AXAFl7KqnnSG4MbgNgy-13" style="edgeStyle=orthogonalEdgeStyle;rounded=0;orthogonalLoop=1;jettySize=auto;html=1;exitX=0.5;exitY=1;exitDx=0;exitDy=0;entryX=0.5;entryY=0;entryDx=0;entryDy=0;strokeWidth=3;" parent="1" source="0AXAFl7KqnnSG4MbgNgy-8" target="0AXAFl7KqnnSG4MbgNgy-12" edge="1">
          <mxGeometry relative="1" as="geometry" />
        </mxCell>
        <mxCell id="0AXAFl7KqnnSG4MbgNgy-14" value="&lt;font style=&quot;font-size: 15px;&quot;&gt;Да&lt;/font&gt;" style="edgeLabel;html=1;align=center;verticalAlign=middle;resizable=0;points=[];" parent="0AXAFl7KqnnSG4MbgNgy-13" vertex="1" connectable="0">
          <mxGeometry x="-0.16" y="1" relative="1" as="geometry">
            <mxPoint as="offset" />
          </mxGeometry>
        </mxCell>
        <mxCell id="0AXAFl7KqnnSG4MbgNgy-41" style="edgeStyle=orthogonalEdgeStyle;rounded=0;orthogonalLoop=1;jettySize=auto;html=1;exitX=0;exitY=0.5;exitDx=0;exitDy=0;entryX=0.5;entryY=0;entryDx=0;entryDy=0;strokeWidth=3;" parent="1" source="0AXAFl7KqnnSG4MbgNgy-8" target="0AXAFl7KqnnSG4MbgNgy-40" edge="1">
          <mxGeometry relative="1" as="geometry">
            <Array as="points">
              <mxPoint x="210" y="425" />
              <mxPoint x="210" y="1110" />
              <mxPoint x="640" y="1110" />
              <mxPoint x="640" y="320" />
              <mxPoint x="904" y="320" />
            </Array>
          </mxGeometry>
        </mxCell>
        <mxCell id="m6Oq1uaaeNpgW0FphDPL-5" value="&lt;font style=&quot;font-size: 15px;&quot;&gt;Нет&lt;/font&gt;" style="edgeLabel;html=1;align=center;verticalAlign=middle;resizable=0;points=[];fontSize=16;" parent="0AXAFl7KqnnSG4MbgNgy-41" vertex="1" connectable="0">
          <mxGeometry x="-0.9543" relative="1" as="geometry">
            <mxPoint as="offset" />
          </mxGeometry>
        </mxCell>
        <mxCell id="0AXAFl7KqnnSG4MbgNgy-8" value="i &amp;lt; F.size()" style="rhombus;whiteSpace=wrap;html=1;" parent="1" vertex="1">
          <mxGeometry x="341" y="400" width="146" height="50" as="geometry" />
        </mxCell>
        <mxCell id="0AXAFl7KqnnSG4MbgNgy-11" style="edgeStyle=orthogonalEdgeStyle;rounded=0;orthogonalLoop=1;jettySize=auto;html=1;exitX=0.5;exitY=1;exitDx=0;exitDy=0;entryX=0.5;entryY=0;entryDx=0;entryDy=0;strokeWidth=3;" parent="1" source="0AXAFl7KqnnSG4MbgNgy-9" target="0AXAFl7KqnnSG4MbgNgy-8" edge="1">
          <mxGeometry relative="1" as="geometry" />
        </mxCell>
        <mxCell id="0AXAFl7KqnnSG4MbgNgy-9" value="int i = 0;" style="rounded=0;whiteSpace=wrap;html=1;" parent="1" vertex="1">
          <mxGeometry x="354" y="340" width="120" height="30" as="geometry" />
        </mxCell>
        <mxCell id="0AXAFl7KqnnSG4MbgNgy-16" style="edgeStyle=orthogonalEdgeStyle;rounded=0;orthogonalLoop=1;jettySize=auto;html=1;exitX=0.5;exitY=1;exitDx=0;exitDy=0;entryX=0.5;entryY=0;entryDx=0;entryDy=0;strokeWidth=3;" parent="1" source="0AXAFl7KqnnSG4MbgNgy-12" target="0AXAFl7KqnnSG4MbgNgy-15" edge="1">
          <mxGeometry relative="1" as="geometry" />
        </mxCell>
        <mxCell id="0AXAFl7KqnnSG4MbgNgy-12" value="TempX[i] = (double)F[i];&lt;br&gt;int j = 0;" style="rounded=0;whiteSpace=wrap;html=1;" parent="1" vertex="1">
          <mxGeometry x="346" y="490" width="136" height="30" as="geometry" />
        </mxCell>
        <mxCell id="0AXAFl7KqnnSG4MbgNgy-18" style="edgeStyle=orthogonalEdgeStyle;rounded=0;orthogonalLoop=1;jettySize=auto;html=1;exitX=0.5;exitY=1;exitDx=0;exitDy=0;entryX=0.5;entryY=0;entryDx=0;entryDy=0;strokeWidth=3;" parent="1" source="0AXAFl7KqnnSG4MbgNgy-15" target="0AXAFl7KqnnSG4MbgNgy-17" edge="1">
          <mxGeometry relative="1" as="geometry" />
        </mxCell>
        <mxCell id="0AXAFl7KqnnSG4MbgNgy-19" value="&lt;font style=&quot;font-size: 15px;&quot;&gt;Да&lt;/font&gt;" style="edgeLabel;html=1;align=center;verticalAlign=middle;resizable=0;points=[];" parent="0AXAFl7KqnnSG4MbgNgy-18" vertex="1" connectable="0">
          <mxGeometry x="-0.0286" y="5" relative="1" as="geometry">
            <mxPoint as="offset" />
          </mxGeometry>
        </mxCell>
        <mxCell id="0AXAFl7KqnnSG4MbgNgy-27" style="edgeStyle=orthogonalEdgeStyle;rounded=0;orthogonalLoop=1;jettySize=auto;html=1;exitX=0;exitY=0.5;exitDx=0;exitDy=0;entryX=0.5;entryY=0;entryDx=0;entryDy=0;strokeWidth=3;" parent="1" source="0AXAFl7KqnnSG4MbgNgy-15" target="0AXAFl7KqnnSG4MbgNgy-24" edge="1">
          <mxGeometry relative="1" as="geometry">
            <Array as="points">
              <mxPoint x="270" y="580" />
              <mxPoint x="270" y="930" />
              <mxPoint x="414" y="930" />
            </Array>
          </mxGeometry>
        </mxCell>
        <mxCell id="0AXAFl7KqnnSG4MbgNgy-33" value="&lt;font style=&quot;font-size: 15px;&quot;&gt;Нет&lt;/font&gt;" style="edgeLabel;html=1;align=center;verticalAlign=middle;resizable=0;points=[];" parent="0AXAFl7KqnnSG4MbgNgy-27" vertex="1" connectable="0">
          <mxGeometry x="-0.8915" y="-2" relative="1" as="geometry">
            <mxPoint as="offset" />
          </mxGeometry>
        </mxCell>
        <mxCell id="0AXAFl7KqnnSG4MbgNgy-15" value="j &amp;lt;&amp;nbsp;F.size()" style="rhombus;whiteSpace=wrap;html=1;" parent="1" vertex="1">
          <mxGeometry x="341" y="550" width="146" height="60" as="geometry" />
        </mxCell>
        <mxCell id="0AXAFl7KqnnSG4MbgNgy-22" style="edgeStyle=orthogonalEdgeStyle;rounded=0;orthogonalLoop=1;jettySize=auto;html=1;exitX=0.5;exitY=1;exitDx=0;exitDy=0;entryX=0.5;entryY=0;entryDx=0;entryDy=0;strokeWidth=3;" parent="1" source="0AXAFl7KqnnSG4MbgNgy-17" target="0AXAFl7KqnnSG4MbgNgy-21" edge="1">
          <mxGeometry relative="1" as="geometry" />
        </mxCell>
        <mxCell id="0AXAFl7KqnnSG4MbgNgy-23" value="&lt;font style=&quot;font-size: 15px;&quot;&gt;Да&lt;/font&gt;" style="edgeLabel;html=1;align=center;verticalAlign=middle;resizable=0;points=[];" parent="0AXAFl7KqnnSG4MbgNgy-22" vertex="1" connectable="0">
          <mxGeometry x="-0.3214" relative="1" as="geometry">
            <mxPoint as="offset" />
          </mxGeometry>
        </mxCell>
        <mxCell id="0AXAFl7KqnnSG4MbgNgy-29" style="edgeStyle=orthogonalEdgeStyle;rounded=0;orthogonalLoop=1;jettySize=auto;html=1;exitX=0;exitY=0.5;exitDx=0;exitDy=0;entryX=0;entryY=0.5;entryDx=0;entryDy=0;strokeWidth=3;" parent="1" source="0AXAFl7KqnnSG4MbgNgy-17" target="0AXAFl7KqnnSG4MbgNgy-25" edge="1">
          <mxGeometry relative="1" as="geometry">
            <mxPoint x="370" y="875" as="targetPoint" />
            <Array as="points">
              <mxPoint x="290" y="705" />
              <mxPoint x="290" y="875" />
            </Array>
          </mxGeometry>
        </mxCell>
        <mxCell id="0AXAFl7KqnnSG4MbgNgy-32" value="&lt;font style=&quot;font-size: 15px;&quot;&gt;Нет&lt;/font&gt;" style="edgeLabel;html=1;align=center;verticalAlign=middle;resizable=0;points=[];" parent="0AXAFl7KqnnSG4MbgNgy-29" vertex="1" connectable="0">
          <mxGeometry x="-0.8459" y="-1" relative="1" as="geometry">
            <mxPoint as="offset" />
          </mxGeometry>
        </mxCell>
        <mxCell id="0AXAFl7KqnnSG4MbgNgy-17" value="i != j" style="rhombus;whiteSpace=wrap;html=1;" parent="1" vertex="1">
          <mxGeometry x="346" y="680" width="136" height="50" as="geometry" />
        </mxCell>
        <mxCell id="0AXAFl7KqnnSG4MbgNgy-28" style="edgeStyle=orthogonalEdgeStyle;rounded=0;orthogonalLoop=1;jettySize=auto;html=1;exitX=0.5;exitY=1;exitDx=0;exitDy=0;entryX=0.5;entryY=0;entryDx=0;entryDy=0;strokeWidth=3;" parent="1" source="0AXAFl7KqnnSG4MbgNgy-21" target="0AXAFl7KqnnSG4MbgNgy-25" edge="1">
          <mxGeometry relative="1" as="geometry" />
        </mxCell>
        <mxCell id="0AXAFl7KqnnSG4MbgNgy-21" value="TempX[i] -= (double)(A[i][j] * out[j]);" style="rounded=0;whiteSpace=wrap;html=1;" parent="1" vertex="1">
          <mxGeometry x="317" y="770" width="194" height="30" as="geometry" />
        </mxCell>
        <mxCell id="0AXAFl7KqnnSG4MbgNgy-38" style="edgeStyle=orthogonalEdgeStyle;rounded=0;orthogonalLoop=1;jettySize=auto;html=1;exitX=0.5;exitY=1;exitDx=0;exitDy=0;entryX=0.5;entryY=0;entryDx=0;entryDy=0;strokeWidth=3;" parent="1" source="0AXAFl7KqnnSG4MbgNgy-24" target="0AXAFl7KqnnSG4MbgNgy-37" edge="1">
          <mxGeometry relative="1" as="geometry" />
        </mxCell>
        <mxCell id="0AXAFl7KqnnSG4MbgNgy-24" value="TempX[i] /= (double)A[i][i];" style="rounded=0;whiteSpace=wrap;html=1;" parent="1" vertex="1">
          <mxGeometry x="336" y="970" width="156" height="30" as="geometry" />
        </mxCell>
        <mxCell id="0AXAFl7KqnnSG4MbgNgy-35" style="edgeStyle=orthogonalEdgeStyle;rounded=0;orthogonalLoop=1;jettySize=auto;html=1;exitX=0.5;exitY=1;exitDx=0;exitDy=0;entryX=1;entryY=0.5;entryDx=0;entryDy=0;strokeWidth=3;" parent="1" source="0AXAFl7KqnnSG4MbgNgy-25" target="0AXAFl7KqnnSG4MbgNgy-15" edge="1">
          <mxGeometry relative="1" as="geometry">
            <Array as="points">
              <mxPoint x="414" y="910" />
              <mxPoint x="540" y="910" />
              <mxPoint x="540" y="580" />
            </Array>
          </mxGeometry>
        </mxCell>
        <mxCell id="0AXAFl7KqnnSG4MbgNgy-25" value="j++;" style="rounded=0;whiteSpace=wrap;html=1;" parent="1" vertex="1">
          <mxGeometry x="376" y="860" width="76" height="30" as="geometry" />
        </mxCell>
        <mxCell id="0AXAFl7KqnnSG4MbgNgy-39" style="edgeStyle=orthogonalEdgeStyle;rounded=0;orthogonalLoop=1;jettySize=auto;html=1;exitX=0.5;exitY=1;exitDx=0;exitDy=0;entryX=1;entryY=0.5;entryDx=0;entryDy=0;strokeWidth=3;" parent="1" source="0AXAFl7KqnnSG4MbgNgy-37" target="0AXAFl7KqnnSG4MbgNgy-8" edge="1">
          <mxGeometry relative="1" as="geometry">
            <Array as="points">
              <mxPoint x="414" y="1080" />
              <mxPoint x="570" y="1080" />
              <mxPoint x="570" y="425" />
            </Array>
          </mxGeometry>
        </mxCell>
        <mxCell id="0AXAFl7KqnnSG4MbgNgy-37" value="i++;" style="rounded=0;whiteSpace=wrap;html=1;" parent="1" vertex="1">
          <mxGeometry x="381" y="1030" width="66" height="30" as="geometry" />
        </mxCell>
        <mxCell id="m6Oq1uaaeNpgW0FphDPL-2" style="edgeStyle=none;curved=1;rounded=0;orthogonalLoop=1;jettySize=auto;html=1;exitX=0.5;exitY=1;exitDx=0;exitDy=0;entryX=0.5;entryY=0;entryDx=0;entryDy=0;fontSize=12;startSize=8;endSize=8;strokeWidth=3;" parent="1" source="0AXAFl7KqnnSG4MbgNgy-40" target="m6Oq1uaaeNpgW0FphDPL-1" edge="1">
          <mxGeometry relative="1" as="geometry" />
        </mxCell>
        <mxCell id="0AXAFl7KqnnSG4MbgNgy-40" value="norm = fabs(out[0] - TempX[0]);" style="rounded=0;whiteSpace=wrap;html=1;" parent="1" vertex="1">
          <mxGeometry x="814" y="340" width="179" height="30" as="geometry" />
        </mxCell>
        <mxCell id="m6Oq1uaaeNpgW0FphDPL-4" style="edgeStyle=none;curved=1;rounded=0;orthogonalLoop=1;jettySize=auto;html=1;exitX=0.5;exitY=1;exitDx=0;exitDy=0;entryX=0.5;entryY=0;entryDx=0;entryDy=0;fontSize=12;startSize=8;endSize=8;strokeWidth=3;" parent="1" source="m6Oq1uaaeNpgW0FphDPL-1" target="m6Oq1uaaeNpgW0FphDPL-3" edge="1">
          <mxGeometry relative="1" as="geometry" />
        </mxCell>
        <mxCell id="m6Oq1uaaeNpgW0FphDPL-1" value="int i = 0;" style="rounded=0;whiteSpace=wrap;html=1;" parent="1" vertex="1">
          <mxGeometry x="843.5" y="410" width="120" height="30" as="geometry" />
        </mxCell>
        <mxCell id="m6Oq1uaaeNpgW0FphDPL-11" style="edgeStyle=none;curved=1;rounded=0;orthogonalLoop=1;jettySize=auto;html=1;exitX=0.5;exitY=1;exitDx=0;exitDy=0;entryX=0.5;entryY=0;entryDx=0;entryDy=0;fontSize=12;startSize=8;endSize=8;strokeWidth=3;" parent="1" source="m6Oq1uaaeNpgW0FphDPL-3" target="m6Oq1uaaeNpgW0FphDPL-8" edge="1">
          <mxGeometry relative="1" as="geometry" />
        </mxCell>
        <mxCell id="m6Oq1uaaeNpgW0FphDPL-12" value="&lt;font style=&quot;font-size: 15px;&quot;&gt;Да&lt;/font&gt;" style="edgeLabel;html=1;align=center;verticalAlign=middle;resizable=0;points=[];fontSize=16;" parent="m6Oq1uaaeNpgW0FphDPL-11" vertex="1" connectable="0">
          <mxGeometry x="-0.5067" y="2" relative="1" as="geometry">
            <mxPoint as="offset" />
          </mxGeometry>
        </mxCell>
        <mxCell id="XiqsD5tJ2LkIdNnXsAsQ-9" style="edgeStyle=orthogonalEdgeStyle;rounded=0;orthogonalLoop=1;jettySize=auto;html=1;exitX=0;exitY=0.5;exitDx=0;exitDy=0;entryX=1;entryY=0.5;entryDx=0;entryDy=0;strokeWidth=3;" edge="1" parent="1" source="m6Oq1uaaeNpgW0FphDPL-3" target="0AXAFl7KqnnSG4MbgNgy-3">
          <mxGeometry relative="1" as="geometry">
            <Array as="points">
              <mxPoint x="827" y="490" />
              <mxPoint x="620" y="490" />
              <mxPoint x="620" y="280" />
            </Array>
          </mxGeometry>
        </mxCell>
        <mxCell id="XiqsD5tJ2LkIdNnXsAsQ-10" value="&lt;font style=&quot;font-size: 15px;&quot;&gt;Нет&lt;/font&gt;" style="edgeLabel;html=1;align=center;verticalAlign=middle;resizable=0;points=[];" vertex="1" connectable="0" parent="XiqsD5tJ2LkIdNnXsAsQ-9">
          <mxGeometry x="-0.8566" y="4" relative="1" as="geometry">
            <mxPoint x="107" y="-26" as="offset" />
          </mxGeometry>
        </mxCell>
        <mxCell id="m6Oq1uaaeNpgW0FphDPL-3" value="i &amp;lt; F.size()" style="rhombus;whiteSpace=wrap;html=1;" parent="1" vertex="1">
          <mxGeometry x="827" y="460" width="146" height="50" as="geometry" />
        </mxCell>
        <mxCell id="m6Oq1uaaeNpgW0FphDPL-14" style="edgeStyle=none;curved=1;rounded=0;orthogonalLoop=1;jettySize=auto;html=1;exitX=0.5;exitY=1;exitDx=0;exitDy=0;entryX=0.5;entryY=0;entryDx=0;entryDy=0;fontSize=12;startSize=8;endSize=8;strokeWidth=3;" parent="1" source="m6Oq1uaaeNpgW0FphDPL-8" target="m6Oq1uaaeNpgW0FphDPL-13" edge="1">
          <mxGeometry relative="1" as="geometry" />
        </mxCell>
        <mxCell id="m6Oq1uaaeNpgW0FphDPL-15" value="&lt;font style=&quot;font-size: 15px;&quot;&gt;Да&lt;/font&gt;" style="edgeLabel;html=1;align=center;verticalAlign=middle;resizable=0;points=[];fontSize=16;" parent="m6Oq1uaaeNpgW0FphDPL-14" vertex="1" connectable="0">
          <mxGeometry x="-0.457" y="-1" relative="1" as="geometry">
            <mxPoint as="offset" />
          </mxGeometry>
        </mxCell>
        <mxCell id="XiqsD5tJ2LkIdNnXsAsQ-5" style="edgeStyle=orthogonalEdgeStyle;rounded=0;orthogonalLoop=1;jettySize=auto;html=1;exitX=0;exitY=0.5;exitDx=0;exitDy=0;entryX=0;entryY=0.5;entryDx=0;entryDy=0;strokeWidth=3;" edge="1" parent="1" source="m6Oq1uaaeNpgW0FphDPL-8" target="XiqsD5tJ2LkIdNnXsAsQ-2">
          <mxGeometry relative="1" as="geometry">
            <Array as="points">
              <mxPoint x="720" y="565" />
              <mxPoint x="720" y="785" />
            </Array>
          </mxGeometry>
        </mxCell>
        <mxCell id="XiqsD5tJ2LkIdNnXsAsQ-6" value="&lt;font style=&quot;font-size: 15px;&quot;&gt;Нет&lt;/font&gt;" style="edgeLabel;html=1;align=center;verticalAlign=middle;resizable=0;points=[];" vertex="1" connectable="0" parent="XiqsD5tJ2LkIdNnXsAsQ-5">
          <mxGeometry x="-0.911" y="4" relative="1" as="geometry">
            <mxPoint as="offset" />
          </mxGeometry>
        </mxCell>
        <mxCell id="m6Oq1uaaeNpgW0FphDPL-8" value="|out[i] - TempX[i]| &amp;gt; norm" style="rhombus;whiteSpace=wrap;html=1;fontSize=16;" parent="1" vertex="1">
          <mxGeometry x="776" y="540" width="256" height="50" as="geometry" />
        </mxCell>
        <mxCell id="m6Oq1uaaeNpgW0FphDPL-9" style="edgeStyle=none;curved=1;rounded=0;orthogonalLoop=1;jettySize=auto;html=1;entryX=0.5;entryY=0;entryDx=0;entryDy=0;fontSize=12;startSize=8;endSize=8;" parent="1" source="m6Oq1uaaeNpgW0FphDPL-8" target="m6Oq1uaaeNpgW0FphDPL-8" edge="1">
          <mxGeometry relative="1" as="geometry" />
        </mxCell>
        <mxCell id="XiqsD5tJ2LkIdNnXsAsQ-3" style="edgeStyle=orthogonalEdgeStyle;rounded=0;orthogonalLoop=1;jettySize=auto;html=1;exitX=0.5;exitY=1;exitDx=0;exitDy=0;entryX=0.5;entryY=0;entryDx=0;entryDy=0;strokeWidth=3;" edge="1" parent="1" source="m6Oq1uaaeNpgW0FphDPL-13" target="XiqsD5tJ2LkIdNnXsAsQ-2">
          <mxGeometry relative="1" as="geometry" />
        </mxCell>
        <mxCell id="m6Oq1uaaeNpgW0FphDPL-13" value="norm = fabs(out[i] - TempX[i]);" style="rounded=0;whiteSpace=wrap;html=1;fontSize=16;" parent="1" vertex="1">
          <mxGeometry x="790.5" y="660" width="226" height="30" as="geometry" />
        </mxCell>
        <mxCell id="XiqsD5tJ2LkIdNnXsAsQ-4" style="edgeStyle=orthogonalEdgeStyle;rounded=0;orthogonalLoop=1;jettySize=auto;html=1;exitX=1;exitY=0.5;exitDx=0;exitDy=0;entryX=1;entryY=0.5;entryDx=0;entryDy=0;strokeWidth=3;" edge="1" parent="1" source="XiqsD5tJ2LkIdNnXsAsQ-2" target="m6Oq1uaaeNpgW0FphDPL-3">
          <mxGeometry relative="1" as="geometry">
            <Array as="points">
              <mxPoint x="1070" y="785" />
              <mxPoint x="1070" y="485" />
            </Array>
          </mxGeometry>
        </mxCell>
        <mxCell id="XiqsD5tJ2LkIdNnXsAsQ-2" value="out[i] = (double)TempX[i];&lt;br&gt;i++;" style="rounded=0;whiteSpace=wrap;html=1;" vertex="1" parent="1">
          <mxGeometry x="824.5" y="760" width="159" height="50" as="geometry" />
        </mxCell>
        <mxCell id="XiqsD5tJ2LkIdNnXsAsQ-11" style="edgeStyle=orthogonalEdgeStyle;rounded=0;orthogonalLoop=1;jettySize=auto;html=1;exitX=0.5;exitY=1;exitDx=0;exitDy=0;entryX=0.5;entryY=0;entryDx=0;entryDy=0;strokeWidth=3;" edge="1" parent="1" source="XiqsD5tJ2LkIdNnXsAsQ-7" target="XiqsD5tJ2LkIdNnXsAsQ-8">
          <mxGeometry relative="1" as="geometry" />
        </mxCell>
        <mxCell id="XiqsD5tJ2LkIdNnXsAsQ-7" value="return out;" style="rounded=0;whiteSpace=wrap;html=1;" vertex="1" parent="1">
          <mxGeometry x="381" y="1180" width="86" height="40" as="geometry" />
        </mxCell>
        <mxCell id="XiqsD5tJ2LkIdNnXsAsQ-8" value="конец" style="rounded=1;whiteSpace=wrap;html=1;" vertex="1" parent="1">
          <mxGeometry x="386" y="1260" width="76" height="30" as="geometry" />
        </mxCell>
      </root>
    </mxGraphModel>
  </diagram>
</mxfile>
